<?xml version="1.0" encoding="utf-8"?>
<!-- Generator: Adobe Illustrator 18.1.0, SVG Export Plug-In . SVG Version: 6.00 Build 0)  -->
<svg version="1.1" id="Ebene_1" xmlns="http://www.w3.org/2000/svg" xmlns:xlink="http://www.w3.org/1999/xlink" x="0px" y="0px"
	 viewBox="6222.3 0 3938.9 8503.9" enable-background="new 6222.3 0 3938.9 8503.9" xml:space="preserve">
<path fill="#FFFFFF" d="M8839.5,2779.2c443.2,0,878.5,0,1321.7,0c-51.4,486.2-102.3,966.1-153.7,1450.7c-388.1,0-773.6,0-1166.4,0
	c0,1416.1,0,2826.4,0,4240.4c-583.7,0-1160.7,0-1744.4,0c0-25.2,0-48.8,0-72.4c0-1362.1,0-2724.2,0-4086.2
	c0-90.7,6.3-79.7-80.8-80.2c-244.9-0.5-489.9,0-734.3,0c-18.9,0-37.2,0-59.3,0c0-484.6,0-965,0-1452.8c20.5,0,40.4,0,60.3,0
	c251.8,0,503.5-1.6,755.3,1c49.3,0.5,60.3-15.7,60.3-61.9c-1.6-308.4-3.7-617.3,0.5-925.7c4.2-299.5,45.1-593.7,158.9-873.3
	c181.5-445.8,520.3-707.5,977.1-830.8c259.1-69.2,524.5-86.5,792-87.1c353.5-0.5,707,0.5,1060.5-1c48.8,0,68.2,8.9,68.2,65
	c-2.6,441.6-1.6,882.7-1.6,1324.3c0,17.3,0,34.1,0,57.7c-22.6,1.6-42.5,3.7-61.9,3.7c-210.3,0-420.6-3.1-631,1.6
	c-105.9,2.1-214,9.4-317.8,29.9c-182.5,36.2-283.7,152.1-291.1,337.8c-10,237.6-8.9,475.2-12.1,713.3
	C8838.4,2611.9,8839.5,2691.1,8839.5,2779.2z"/>
</svg>
