<?xml version="1.0" encoding="utf-8"?>
<!-- Generator: Adobe Illustrator 18.1.0, SVG Export Plug-In . SVG Version: 6.00 Build 0)  -->
<svg version="1.1" id="Ebene_1" xmlns="http://www.w3.org/2000/svg" xmlns:xlink="http://www.w3.org/1999/xlink" x="0px" y="0px"
	 viewBox="0 0 751.1 1621.4" enable-background="new 0 0 751.1 1621.4" xml:space="preserve">
<path d="M499.1,529.9c84.5,0,167.5,0,252,0c-9.8,92.7-19.5,184.2-29.3,276.6c-74,0-147.5,0-222.4,0c0,270,0,538.9,0,808.5
	c-111.3,0-221.3,0-332.6,0c0-4.8,0-9.3,0-13.8c0-259.7,0-519.4,0-779.1c0-17.3,1.2-15.2-15.4-15.3c-46.7-0.1-93.4,0-140,0
	c-3.6,0-7.1,0-11.3,0c0-92.4,0-184,0-277c3.9,0,7.7,0,11.5,0c48,0,96-0.3,144,0.2c9.4,0.1,11.5-3,11.5-11.8
	c-0.3-58.8-0.7-117.7,0.1-176.5c0.8-57.1,8.6-113.2,30.3-166.5c34.6-85,99.2-134.9,186.3-158.4C433.2,3.6,483.8,0.3,534.8,0.2
	C602.2,0.1,669.6,0.3,737,0c9.3,0,13,1.7,13,12.4c-0.5,84.2-0.3,168.3-0.3,252.5c0,3.3,0,6.5,0,11c-4.3,0.3-8.1,0.7-11.8,0.7
	c-40.1,0-80.2-0.6-120.3,0.3c-20.2,0.4-40.8,1.8-60.6,5.7c-34.8,6.9-54.1,29-55.5,64.4c-1.9,45.3-1.7,90.6-2.3,136
	C498.9,498,499.1,513.1,499.1,529.9z"/>
</svg>
