<?xml version="1.0" encoding="utf-8"?>
<!-- Generator: Adobe Illustrator 18.1.0, SVG Export Plug-In . SVG Version: 6.00 Build 0)  -->
<svg version="1.1" id="Ebene_1" xmlns="http://www.w3.org/2000/svg" xmlns:xlink="http://www.w3.org/1999/xlink" x="0px" y="0px"
	 viewBox="3963.1 0 8462.2 8503.9" enable-background="new 3963.1 0 8462.2 8503.9" xml:space="preserve">
<g>
	<path fill="#FFFFFF" d="M9961,3041.7c819.2,0,1632.3,0,2457.7,0c2.1,33,6.2,70.2,6.2,105.2c0,1234,2.1,2468,0,3704.1
		c-2.1,905.9-751.1,1650.9-1659.1,1650.9c-1714.8,0-3431.7,0-5146.5,0c-891.5,0-1646.7-734.6-1652.9-1626.1
		c-8.3-1252.6-2.1-2503.1-2.1-3755.7c0-22.7,2.1-47.5,4.1-80.5c815.1,0,1626.1,0,2451.5,0c-377.6,569.5-489.1,1176.2-313.7,1826.3
		c132.1,484.9,408.6,872.9,813,1170c798.6,586.1,1910.9,540.7,2674.4-107.3C10336.6,5301.3,10664.7,4087.9,9961,3041.7z"/>
	<path fill="#FFFFFF" d="M5256.1,55.7c0,676.8,0,1353.7,0,2038.8c115.6,0,222.9,0,342.6,0c0-695.4,0-1388.8,0-2088.3
		c80.5,0,150.6,0,233.2,0c0,695.4,0,1386.7,0,2088.3c119.7,0,227,0,344.6,0c0-695.4,0-1388.8,0-2096.6c53.7,0,99.1,0,142.4,0
		C7802.5,0,9284.1,0,10765.8,0c891.5,0,1634.3,720.2,1657,1611.6c8.3,365.3,2.1,728.4,2.1,1093.7c0,20.6-4.1,39.2-6.2,70.2
		c-37.1,0-70.2,0-103.2,0c-829.6,0-1657,2.1-2486.6-2.1c-53.7,0-121.8-26.8-161-61.9c-841.9-780-2133.7-775.9-2967.4,10.3
		c-28.9,26.8-76.4,51.6-113.5,51.6c-856.4,2.1-1712.8,2.1-2569.1,2.1c-14.4,0-26.8-2.1-39.2-4.1c-2.1-4.1-6.2-8.3-6.2-10.3
		c2.1-501.4-61.9-1005,45.4-1500.2c80.5-379.7,342.6-744.9,654.1-949.2c0,600.5,0,1190.7,0,1787c117.6,0,222.9,0,338.4,0
		c0-47.5,0-86.7,0-127.9c0-561.3,0-1120.5,0-1681.8C5010.5,99.1,5043.5,66,5256.1,55.7z M10223.1,1430c0,150.6-2.1,303.3,0,454
		c2.1,165.1,107.3,272.4,270.3,272.4c295.1,2.1,590.2,2.1,887.3,0c163,0,272.4-109.4,272.4-272.4c2.1-303.3,2.1-604.6,0-908
		c-2.1-158.9-103.2-270.3-262.1-272.4c-303.3-4.1-604.6-4.1-908,0c-158.9,2.1-260,113.5-262.1,272.4
		C10223.1,1126.7,10223.1,1279.4,10223.1,1430z"/>
	<path fill="#FFFFFF" d="M8186.3,5957.5c-924.5,0-1673.5-751.1-1669.4-1671.5c4.1-918.3,753.2-1663.2,1669.4-1663.2
		c924.5,0,1673.5,747,1673.5,1669.4C9857.8,5214.6,9114.9,5957.5,8186.3,5957.5z M8194.6,3060.3
		c-676.8,0-1227.8,548.9-1227.8,1223.7c0,683,548.9,1236.1,1227.8,1236.1c674.8,0,1227.8-551,1227.8-1225.8
		C9422.4,3611.2,8875.6,3062.3,8194.6,3060.3z"/>
</g>
</svg>
