<?xml version="1.0" encoding="utf-8"?>
<!-- Generator: Adobe Illustrator 18.1.0, SVG Export Plug-In . SVG Version: 6.00 Build 0)  -->
<svg version="1.1" id="Ebene_1" xmlns="http://www.w3.org/2000/svg" xmlns:xlink="http://www.w3.org/1999/xlink" x="0px" y="0px"
	 viewBox="0 0 410.5 412.1" enable-background="new 0 0 410.5 412.1" xml:space="preserve">
<g>
	<path d="M291,147.4c39.7,0,79.1,0,119.1,0c0.1,1.6,0.3,3.4,0.3,5.1c0,59.8,0.1,119.6,0,179.5C410.3,375.9,374,412,330,412
		c-83.1,0-166.3,0-249.4,0c-43.2,0-79.8-35.6-80.1-78.8c-0.4-60.7-0.1-121.3-0.1-182c0-1.1,0.1-2.3,0.2-3.9c39.5,0,78.8,0,118.8,0
		c-18.3,27.6-23.7,57-15.2,88.5c6.4,23.5,19.8,42.3,39.4,56.7c38.7,28.4,92.6,26.2,129.6-5.2C309.2,256.9,325.1,198.1,291,147.4z"/>
	<path d="M63,2.7c0,32.8,0,65.6,0,98.8c5.6,0,10.8,0,16.6,0c0-33.7,0-67.3,0-101.2c3.9,0,7.3,0,11.3,0c0,33.7,0,67.2,0,101.2
		c5.8,0,11,0,16.7,0c0-33.7,0-67.3,0-101.6c2.6,0,4.8,0,6.9,0C186.4,0,258.2,0,330,0c43.2,0,79.2,34.9,80.3,78.1
		c0.4,17.7,0.1,35.3,0.1,53c0,1-0.2,1.9-0.3,3.4c-1.8,0-3.4,0-5,0c-40.2,0-80.3,0.1-120.5-0.1c-2.6,0-5.9-1.3-7.8-3
		C236,93.6,173.4,93.8,133,131.9c-1.4,1.3-3.7,2.5-5.5,2.5c-41.5,0.1-83,0.1-124.5,0.1c-0.7,0-1.3-0.1-1.9-0.2
		c-0.1-0.2-0.3-0.4-0.3-0.5C0.9,109.5-2.2,85.1,3,61.1c3.9-18.4,16.6-36.1,31.7-46c0,29.1,0,57.7,0,86.6c5.7,0,10.8,0,16.4,0
		c0-2.3,0-4.2,0-6.2c0-27.2,0-54.3,0-81.5C51.1,4.8,52.7,3.2,63,2.7z M303.7,69.3c0,7.3-0.1,14.7,0,22c0.1,8,5.2,13.2,13.1,13.2
		c14.3,0.1,28.6,0.1,43,0c7.9,0,13.2-5.3,13.2-13.2c0.1-14.7,0.1-29.3,0-44c-0.1-7.7-5-13.1-12.7-13.2c-14.7-0.2-29.3-0.2-44,0
		c-7.7,0.1-12.6,5.5-12.7,13.2C303.7,54.6,303.7,62,303.7,69.3z"/>
	<path d="M205,288.7c-44.8,0-81.1-36.4-80.9-81c0.2-44.5,36.5-80.6,80.9-80.6c44.8,0,81.1,36.2,81.1,80.9
		C286,252.7,250,288.7,205,288.7z M205.4,148.3c-32.8,0-59.5,26.6-59.5,59.3c0,33.1,26.6,59.9,59.5,59.9c32.7,0,59.5-26.7,59.5-59.4
		C264.9,175,238.4,148.4,205.4,148.3z"/>
</g>
</svg>
