<?xml version="1.0" encoding="utf-8"?>
<!-- Generator: Adobe Illustrator 18.1.0, SVG Export Plug-In . SVG Version: 6.00 Build 0)  -->
<svg version="1.1" id="Ebene_1" xmlns="http://www.w3.org/2000/svg" xmlns:xlink="http://www.w3.org/1999/xlink" x="0px" y="0px"
	 viewBox="2909.4 0 10564.2 8503.9" enable-background="new 2909.4 0 10564.2 8503.9" xml:space="preserve">
<path fill="#FFFFFF" d="M8942.2,2238.7c75.9-181.2,144-366.6,229.4-543.6c230.4-477.1,529.4-901.8,978.2-1200.3
	c617.9-411.1,1299.8-538.3,2030.3-440.4c306.3,40.8,584.4,140.9,807,366.6c247.2,249.8,376.5,559.8,406.4,899.7
	c26.7,302.7,47.7,616.9-5.2,912.2c-61.8,345.6-173.9,691.8-321.5,1011.2c-433.6,938.4-1042.1,1766.4-1714,2545.1
	c-412.1,478.1-838.4,946.3-1284,1393.5c-471.8,472.9-1005.5,871.9-1628.1,1134.3c-329.4,138.8-677.6,202.1-1030.1,139.8
	c-275.5-48.7-497.5-218.9-675-431.5c-349.8-419.5-580.8-900.2-724.8-1427.5c-106.3-389.1-243.5-769.8-359.2-1156.8
	c-118.9-397.5-224.1-798.6-341.4-1196.6c-144.5-488.6-287-980.3-566.1-1412.9c-86.9-134.6-210.5-257.6-344.6-343.5
	c-75.4-48.2-221-42.9-309.5-4.2c-190.1,83.3-366.6,200-544.1,310c-99,60.7-178,58.1-253.5-33C3187,2633.6,3074.4,2511.5,2977,2379
	c-22.5-30.4-16.8-120.4,9.9-141.9c792.8-645.7,1526-1370.5,2422-1882.6c225.2-128.8,461.4-222.6,731-223.1
	c515.8-1,860.4,253.5,1093.4,691.8c147.7,278.6,224.7,577.1,272.3,889.2c66,431,157.6,858.3,236.2,1287.2
	c48.2,262.9,79.1,530,143.5,789.2c79.6,322.1,176.5,640.5,282.8,954.1c53.9,158.1,144.5,304.3,221.5,454
	c17.8,34.6,43.5,64.9,68.6,95.3c139.3,169.7,300.1,205.3,457.2,53.9c247.2-237.7,499.6-481.3,692.3-761.9
	c256.6-373.9,475.5-777.7,677.6-1184.6c143.5-288.5,178.6-609,56-923.8c-76.5-195.9-247.2-287-438.3-292.2
	c-237.7-5.8-477.1,29.8-715.3,51.3c-67,6.3-132.5,25.7-199,38.8C8973.1,2262.8,8957.9,2250.7,8942.2,2238.7z"/>
</svg>
