<?xml version="1.0" encoding="utf-8"?>
<!-- Generator: Adobe Illustrator 18.1.0, SVG Export Plug-In . SVG Version: 6.00 Build 0)  -->
<svg version="1.1" id="Ebene_1" xmlns="http://www.w3.org/2000/svg" xmlns:xlink="http://www.w3.org/1999/xlink" x="0px" y="0px"
	 viewBox="0 0 2004.3 1623.9" enable-background="new 0 0 2004.3 1623.9" xml:space="preserve">
<path d="M1145.5,427.5c14.5-34.6,27.5-70,43.8-103.8c44-91.1,101.1-172.2,186.8-229.2c118-78.5,248.2-102.8,387.7-84.1
	c58.5,7.8,111.6,26.9,154.1,70c47.2,47.7,71.9,106.9,77.6,171.8c5.1,57.8,9.1,117.8-1,174.2c-11.8,66-33.2,132.1-61.4,193.1
	c-82.8,179.2-199,337.3-327.3,486c-78.7,91.3-160.1,180.7-245.2,266.1c-90.1,90.3-192,166.5-310.9,216.6
	c-62.9,26.5-129.4,38.6-196.7,26.7c-52.6-9.3-95-41.8-128.9-82.4c-66.8-80.1-110.9-171.9-138.4-272.6
	c-20.3-74.3-46.5-147-68.6-220.9c-22.7-75.9-42.8-152.5-65.2-228.5c-27.6-93.3-54.8-187.2-108.1-269.8
	c-16.6-25.7-40.2-49.2-65.8-65.6c-14.4-9.2-42.2-8.2-59.1-0.8c-36.3,15.9-70,38.2-103.9,59.2c-18.9,11.6-34,11.1-48.4-6.3
	c-20.1-24.3-41.6-47.6-60.2-72.9c-4.3-5.8-3.2-23,1.9-27.1C159.7,303.9,299.7,165.5,470.8,67.7c43-24.6,88.1-42.5,139.6-42.6
	c98.5-0.2,164.3,48.4,208.8,132.1c28.2,53.2,42.9,110.2,52,169.8c12.6,82.3,30.1,163.9,45.1,245.8c9.2,50.2,15.1,101.2,27.4,150.7
	c15.2,61.5,33.7,122.3,54,182.2c10.3,30.2,27.6,58.1,42.3,86.7c3.4,6.6,8.3,12.4,13.1,18.2c26.6,32.4,57.3,39.2,87.3,10.3
	c47.2-45.4,95.4-91.9,132.2-145.5c49-71.4,90.8-148.5,129.4-226.2c27.4-55.1,34.1-116.3,10.7-176.4c-14.6-37.4-47.2-54.8-83.7-55.8
	c-45.4-1.1-91.1,5.7-136.6,9.8c-12.8,1.2-25.3,4.9-38,7.4C1151.4,432.1,1148.5,429.8,1145.5,427.5z"/>
</svg>
